# Blender v2.93.6 OBJ File: 'Earth-Mana.blend'
# www.blender.org
mtllib Earth-Mana.mtl
o Sphere_Sphere.001
v -0.015217 0.507403 -0.168699
v -0.038523 0.040664 -0.440228
v -0.076322 -0.250279 -0.361406
v -0.059671 -0.321167 -0.306964
v 0.034972 0.254707 -0.363335
v 0.034670 0.170543 -0.407156
v 0.120465 0.085062 -0.416547
v -0.018661 -0.416665 -0.169189
v 0.016423 0.669287 -0.084485
v 0.045239 0.407838 -0.232723
v 0.133930 0.256819 -0.334937
v 0.129515 -0.003695 -0.421254
v 0.116823 -0.128234 -0.408424
v 0.104215 -0.251137 -0.351542
v 0.025805 -0.378348 -0.241995
v 0.186363 0.170519 -0.362276
v 0.260991 0.056965 -0.349106
v 0.122388 -0.318634 -0.288165
v 0.076683 0.523157 -0.142334
v 0.150727 0.396912 -0.189087
v 0.224727 0.258299 -0.280242
v 0.265316 -0.085100 -0.338170
v 0.245949 -0.211039 -0.302073
v 0.069283 -0.432922 -0.108132
v 0.304595 0.176309 -0.260659
v 0.344918 -0.037067 -0.266156
v 0.256541 -0.295082 -0.210154
v 0.172064 -0.373266 -0.176066
v 0.066031 0.667780 -0.055451
v 0.175330 0.448786 -0.097205
v 0.312427 0.258299 -0.170911
v 0.361372 0.129767 -0.208817
v 0.354722 -0.173341 -0.185903
v 0.260048 -0.351518 -0.086197
v 0.405201 0.088713 -0.126230
v 0.414441 -0.040662 -0.124546
v 0.366562 -0.220863 -0.096974
v 0.375821 0.220506 -0.057495
v 0.201106 0.448350 -0.003097
v 0.352569 0.258299 0.035505
v 0.421566 0.088713 0.042048
v 0.428673 -0.056965 0.028099
v 0.395876 -0.173341 0.047083
v 0.334116 -0.287400 0.026043
v 0.164610 -0.417424 -0.028303
v 0.363060 0.220532 0.117060
v 0.411002 -0.000000 0.135674
v 0.234310 -0.375325 0.053924
v 0.082274 0.675046 0.016746
v 0.148746 0.515279 0.065225
v 0.375894 0.085100 0.200296
v 0.374725 -0.092111 0.201145
v 0.336692 -0.213742 0.184151
v 0.269171 -0.318954 0.147221
v 0.193438 0.404017 0.135661
v 0.273873 0.258299 0.229953
v 0.254735 0.176309 0.311679
v 0.320761 0.136980 0.266294
v 0.328976 -0.000000 0.286288
v 0.117869 -0.417167 0.120610
v 0.052813 0.667337 0.067113
v 0.232721 0.044338 0.369872
v 0.263975 -0.131910 0.327945
v 0.222759 -0.292813 0.248784
v 0.083036 -0.442457 0.028626
v 0.167026 0.258299 0.319693
v 0.169883 -0.251417 0.322840
v 0.147091 -0.377139 0.194315
v 0.075301 0.517852 0.147617
v 0.068762 0.411396 0.226620
v 0.127389 0.131813 0.404348
v 0.118096 0.000000 0.425060
v 0.121234 -0.131910 0.406350
v 0.039437 -0.249099 0.365599
v 0.093546 -0.318922 0.296718
v 0.034752 0.258299 0.360763
v -0.099948 0.260751 0.345630
v -0.033529 0.131813 0.423452
v -0.049860 0.000000 0.438948
v -0.034107 -0.088524 0.431862
v -0.038249 -0.218684 0.386202
v -0.001305 0.672500 0.086723
v -0.043562 0.453388 0.197231
v -0.210225 0.000000 0.386011
v -0.122361 -0.173341 0.388113
v -0.052097 -0.320762 0.307835
v -0.030269 -0.377139 0.243829
v -0.011656 -0.416521 0.170105
v -0.002029 -0.449874 0.050149
v -0.183205 0.220672 0.340846
v -0.199291 0.088713 0.382442
v -0.193021 -0.088524 0.385633
v -0.192186 -0.220863 0.333797
v -0.066380 0.669564 0.054082
v -0.322550 -0.088524 0.280695
v -0.138972 0.446330 0.150465
v -0.270857 0.258523 0.233330
v -0.320492 0.131910 0.270114
v -0.338585 -0.000000 0.274307
v -0.300179 -0.213813 0.242487
v -0.210454 -0.320762 0.226338
v -0.173993 -0.375325 0.169394
v -0.000000 0.954473 0.000000
v -0.155283 0.515935 0.051417
v -0.399922 0.044338 0.161398
v -0.397115 -0.131910 0.124054
v -0.227989 0.396912 0.071533
v -0.337502 0.258523 0.109506
v -0.381187 0.173650 0.119180
v -0.307635 -0.294742 0.117573
v -0.239614 -0.377139 0.017191
v -0.139308 -0.417135 0.096514
v -0.421482 0.088713 0.042915
v -0.430456 0.000000 0.035595
v -0.413408 -0.131345 0.000483
v -0.357290 -0.249099 0.040354
v -0.352765 0.258523 -0.030990
v -0.396743 0.173650 -0.039159
v -0.330361 -0.290327 -0.033366
v -0.084310 0.669564 -0.009788
v -0.197026 0.447702 -0.043305
v -0.405448 0.088713 -0.125396
v -0.415078 -0.056966 -0.113134
v -0.379293 -0.173341 -0.125206
v -0.083552 -0.442384 0.025935
v -0.314323 0.258523 -0.166768
v -0.351898 0.173650 -0.191536
v -0.327689 0.088713 -0.274618
v -0.372301 -0.037068 -0.224219
v -0.316537 -0.251417 -0.171855
v -0.254782 -0.348681 -0.113520
v -0.184790 0.396912 -0.154233
v -0.253921 0.220649 -0.289863
v -0.304595 -0.176309 -0.260660
v -0.268072 -0.000000 -0.346459
v -0.269035 -0.088713 -0.334757
v -0.218259 -0.287400 -0.260164
v -0.143934 -0.420040 -0.078723
v -0.102463 0.521200 -0.126291
v -0.170804 0.258523 -0.317351
v -0.200042 0.088713 -0.382031
v -0.157730 -0.044339 -0.409222
v -0.188599 -0.173650 -0.359307
v -0.128419 -0.375325 -0.207665
v -0.047550 0.670045 -0.072819
v -0.092737 0.394352 -0.229094
v -0.069330 0.258283 -0.353934
v -0.116472 0.173650 -0.390052
v -0.041432 -0.131910 -0.422744
v -0.043226 -0.441736 -0.077246
vt 0.734375 0.000000
vt 0.832355 0.062500
vt 0.655721 0.092502
vt 0.764641 0.875000
vt 0.718618 0.937500
vt 0.670271 0.875000
vt 0.736180 0.625000
vt 0.704218 0.562500
vt 0.764946 0.529345
vt 0.767906 0.125000
vt 0.701481 0.500000
vt 0.719313 0.812500
vt 0.687500 0.693052
vt 0.734041 0.692401
vt 0.732751 0.187500
vt 0.684826 0.250000
vt 0.624850 0.187500
vt 0.672893 0.625000
vt 0.647358 0.539514
vt 0.671875 1.000000
vt 0.609417 0.937500
vt 0.641103 0.812500
vt 0.640008 0.347252
vt 0.604442 0.272998
vt 0.639948 0.693052
vt 0.610852 0.625000
vt 0.526387 0.125000
vt 0.580141 0.589718
vt 0.577886 0.843172
vt 0.578125 0.000000
vt 0.448688 0.062500
vt 0.575320 0.375000
vt 0.540657 0.338512
vt 0.577448 0.693051
vt 0.525026 0.660013
vt 0.546875 1.000000
vt 0.468139 0.937500
vt 0.546196 0.470656
vt 0.505365 0.841865
vt 0.483698 0.693052
vt 0.486009 0.281545
vt 0.547406 0.217939
vt 0.464783 0.187500
vt 0.547036 0.562500
vt 0.484536 0.562500
vt 0.447066 0.657727
vt 0.491510 0.458604
vt 0.450317 0.500000
vt 0.435944 0.875000
vt 0.404647 0.812500
vt 0.481570 0.375000
vt 0.422044 0.344401
vt 0.374915 0.125000
vt 0.423600 0.562500
vt 0.423115 0.437500
vt 0.387817 0.500000
vt 0.389948 0.693052
vt 0.421875 0.250000
vt 0.354799 0.187500
vt 0.360852 0.625000
vt 0.392208 0.596916
vt 0.390625 1.000000
vt 0.357887 0.937500
vt 0.359637 0.404151
vt 0.343750 0.531273
vt 0.326909 0.875000
vt 0.297901 0.812500
vt 0.328614 0.312500
vt 0.366145 0.277081
vt 0.299676 0.250000
vt 0.327448 0.693052
vt 0.298351 0.593583
vt 0.281426 0.035238
vt 0.294067 0.500000
vt 0.328125 1.000000
vt 0.247736 0.937500
vt 0.296905 0.406575
vt 0.267509 0.312500
vt 0.264948 0.693052
vt 0.229863 0.187500
vt 0.222645 0.250000
vt 0.235851 0.593584
vt 0.210407 0.843789
vt 0.237182 0.437500
vt 0.232852 0.340704
vt 0.200321 0.375000
vt 0.203361 0.693439
vt 0.165281 0.656942
vt 0.172036 0.562500
vt 0.165657 0.338512
vt 0.174682 0.437500
vt 0.129029 0.250000
vt 0.171875 1.000000
vt 0.106999 0.937500
vt 0.110263 0.693411
vt 0.109616 0.593345
vt 0.132403 0.839484
vt 0.050072 0.875000
vt 0.047197 0.625000
vt 0.062500 0.531274
vt 0.047353 0.812500
vt 0.108175 0.344544
vt 0.054844 0.275187
vt 0.046905 0.406575
vt 0.017509 0.312500
vt 0.015786 0.562500
vt 0.012817 0.500000
vt 0.046875 1.000000
vt 0.014137 0.937500
vt 0.094672 0.125000
vt 0.020431 0.187500
vt 0.000000 0.125000
vt 0.000000 0.406178
vt 0.000000 0.812500
vt 0.000000 0.250000
vt 1.000000 0.562500
vt 0.984697 0.625000
vt 0.953286 0.562500
vt 1.000000 0.500000
vt 0.960260 0.458604
vt 1.000000 0.406178
vt 0.975132 0.937500
vt 0.962823 0.839844
vt 1.000000 0.875000
vt 0.950320 0.375000
vt 0.913960 0.475094
vt 0.922364 0.312500
vt 0.985499 0.279002
vt 0.922763 0.693411
vt 0.985263 0.693411
vt 0.922197 0.625000
vt 0.890786 0.562500
vt 0.921891 0.125000
vt 0.977592 0.062500
vt 0.921875 1.000000
vt 0.843664 0.937500
vt 0.921875 0.000000
vt 0.856567 0.500000
vt 0.889148 0.375000
vt 0.861009 0.281545
vt 0.891103 0.812500
vt 0.867462 0.659711
vt 0.931077 0.224568
vt 0.839716 0.187500
vt 0.828286 0.562500
vt 0.859536 0.437500
vt 0.828447 0.375000
vt 0.860267 0.875000
vt 0.812605 0.812500
vt 0.812500 0.468726
vt 0.783826 0.312500
vt 0.829013 0.693411
vt 0.797197 0.625000
vt 0.781344 0.250000
vt 0.765866 0.406655
vt 0.781250 0.694273
vt 0.765625 1.000000
vt 0.703125 0.312500
vt 0.704058 0.408146
vt 0.642350 0.437500
vt 0.601460 0.475095
vt 0.238928 0.125000
vt 0.231567 0.500000
vt 0.169067 0.500000
vt 0.121034 0.187500
vt 0.060694 0.062500
vt 0.106567 0.500000
vt 0.112182 0.437500
vt 0.047763 0.693411
vt 0.000000 0.693411
vt 0.000000 0.625000
vt 1.000000 0.312500
vt 0.982751 0.187500
vn 0.0556 -0.9951 -0.0815
vn 0.1813 0.4257 -0.8865
vn 0.0902 0.1977 -0.9761
vn 0.0036 -0.9650 -0.2622
vn 0.1290 0.0656 -0.9895
vn 0.2023 0.6276 -0.7518
vn 0.1149 -0.9063 -0.4068
vn 0.2600 -0.8176 -0.5137
vn 0.4561 0.1991 -0.8674
vn 0.4458 0.0927 -0.8903
vn 0.4921 0.2732 -0.8266
vn 0.3738 0.5069 -0.7767
vn 0.4721 -0.6228 -0.6239
vn 0.5854 0.4021 -0.7040
vn 0.3565 -0.9000 -0.2510
vn 0.7449 0.1996 -0.6366
vn 0.6248 0.4354 -0.6482
vn 0.6558 0.5686 -0.4966
vn 0.0675 -0.9948 -0.0761
vn 0.7545 -0.5318 -0.3846
vn 0.7751 0.4313 -0.4617
vn 0.2336 -0.9681 -0.0910
vn 0.8447 0.4196 -0.3323
vn 0.9357 0.2613 -0.2368
vn 0.9179 -0.2860 -0.2750
vn 0.7862 0.6157 -0.0536
vn 0.7616 -0.6325 -0.1412
vn 0.6600 -0.7512 -0.0064
vn 0.9603 0.2628 -0.0934
vn 0.9148 0.3984 0.0668
vn 0.9889 0.0344 0.1442
vn 0.8683 0.4341 0.2401
vn 0.8598 0.4707 0.1979
vn 0.8411 -0.4955 0.2171
vn 0.3990 -0.9082 0.1268
vn 0.9272 0.2559 0.2734
vn 0.9475 -0.1907 0.2566
vn 0.8782 -0.0009 0.4783
vn 0.7051 0.6162 0.3509
vn 0.5025 -0.8102 0.3017
vn 0.6717 0.4385 0.5972
vn 0.8125 0.2702 0.5166
vn 0.7682 -0.1850 0.6129
vn 0.7614 -0.3171 0.5655
vn 0.6380 0.2191 0.7382
vn 0.5348 0.4821 0.6939
vn 0.5680 -0.4759 0.6715
vn 0.3733 -0.6704 0.6413
vn 0.4450 0.3976 0.8024
vn 0.1383 -0.9671 0.2135
vn 0.3943 0.1155 0.9117
vn 0.3506 0.2738 0.8956
vn 0.2661 -0.4770 0.8376
vn 0.2348 0.6105 0.7564
vn 0.1529 -0.8226 0.5476
vn 0.0646 -0.6750 0.7350
vn 0.1084 0.3939 0.9127
vn 0.1437 0.4234 0.8945
vn 0.0618 -0.3321 0.9412
vn -0.1528 -0.3228 0.9341
vn -0.2456 0.4050 0.8807
vn -0.3051 0.3199 0.8970
vn -0.2668 -0.5289 0.8057
vn -0.4280 -0.3320 0.8406
vn -0.3448 -0.6576 0.6699
vn -0.4418 0.2656 0.8569
vn -0.6180 0.4329 0.6562
vn -0.4901 0.6162 0.6165
vn -0.7803 0.4439 0.4405
vn -0.8676 0.2634 0.4217
vn -0.7107 0.5151 0.4790
vn -0.6551 -0.6157 0.4380
vn -0.8414 -0.4728 0.2616
vn -0.9421 0.2193 0.2536
vn -0.9748 0.0815 0.2079
vn -0.9282 0.2657 0.2606
vn -0.3876 -0.9215 0.0255
vn -0.9785 -0.1613 0.1283
vn -0.8533 0.5213 0.0005
vn -0.7487 -0.6563 0.0935
vn -0.9765 0.1945 -0.0930
vn -0.9918 -0.1129 -0.0593
vn -0.8936 0.4427 0.0749
vn -0.9473 -0.2741 -0.1655
vn -0.9346 0.0320 -0.3542
vn -0.8210 -0.5231 -0.2289
vn -0.7608 0.6123 -0.2154
vn -0.8697 0.1954 -0.4532
vn -0.2086 -0.9741 -0.0876
vn -0.8342 0.2635 -0.4845
vn -0.0803 -0.9961 -0.0376
vn -0.7626 0.0113 -0.6468
vn -0.6680 -0.5215 -0.5309
vn -0.6133 0.6185 -0.4912
vn -0.6242 -0.6533 -0.4285
vn -0.4854 -0.7571 -0.4373
vn -0.6214 0.2621 -0.7384
vn -0.5993 -0.3611 -0.7145
vn -0.5355 0.5066 -0.6758
vn -0.5234 -0.1059 -0.8455
vn -0.3869 -0.5465 -0.7428
vn -0.4468 0.3996 -0.8004
vn -0.2233 -0.9123 -0.3432
vn -0.4871 0.0235 -0.8730
vn -0.1377 -0.8263 -0.5461
vn -0.2826 0.1892 -0.9404
vn -0.3400 0.4265 -0.8382
vn -0.3134 -0.2759 -0.9086
vn -0.2628 0.6274 -0.7331
vn -0.0722 0.5081 -0.8583
vn -0.1696 0.2709 -0.9475
vn 0.0673 -0.4497 -0.8907
vn 0.1275 0.5901 -0.7972
vn 0.0636 -0.6376 -0.7677
vn 0.2490 0.4370 -0.8643
vn 0.0838 -0.6908 -0.7182
vn 0.3651 0.6500 -0.6664
vn 0.2644 0.3635 -0.8933
vn 0.4785 -0.0929 -0.8731
vn 0.4098 -0.5633 -0.7175
vn 0.4399 0.5030 -0.7439
vn 0.2240 -0.8749 -0.4294
vn 0.7391 -0.2955 -0.6053
vn 0.4531 0.4834 -0.7491
vn 0.4786 -0.3091 -0.8218
vn 0.4025 -0.4182 -0.8143
vn 0.6821 -0.0355 -0.7304
vn 0.4414 -0.7139 -0.5436
vn 0.6094 0.3162 -0.7271
vn 0.6658 0.5210 -0.5341
vn 0.7702 0.1381 -0.6227
vn 0.5967 0.6311 -0.4957
vn 0.7144 -0.4735 -0.5152
vn 0.8956 0.0610 -0.4407
vn 0.8787 -0.1937 -0.4363
vn 0.7267 -0.6173 -0.3016
vn 0.5521 -0.7528 -0.3584
vn 0.4521 -0.8606 -0.2344
vn 0.8518 0.4684 -0.2345
vn 0.8878 0.3523 -0.2960
vn 0.7526 0.6247 -0.2083
vn 0.9544 -0.2770 -0.1109
vn 0.9938 0.0631 -0.0915
vn 0.8809 -0.4727 -0.0233
vn 0.5511 -0.8335 -0.0404
vn 0.9234 -0.2725 0.2705
vn 0.9256 0.3723 0.0676
vn 0.0879 -0.1057 -0.9905
vn 0.7320 0.6415 0.2297
vn 0.7029 0.4365 0.5617
vn 0.7687 -0.5845 0.2598
vn 0.6780 -0.7133 0.1776
vn 0.3645 -0.9240 0.1160
vn 0.9441 0.1795 0.2766
vn 0.4609 -0.8436 0.2754
vn 0.8358 0.3428 0.4288
vn 0.8782 -0.0059 0.4783
vn 0.7712 0.4368 0.4631
vn 0.6154 0.5830 0.5304
vn 0.6579 -0.4614 0.5953
vn 0.6673 -0.5885 0.4564
vn 0.5180 -0.7409 0.4274
vn 0.8093 0.1321 0.5723
vn 0.4784 0.6537 0.5863
vn 0.6860 0.1452 0.7130
vn 0.6354 -0.0703 0.7690
vn 0.4735 -0.1189 0.8727
vn 0.5483 0.5227 0.6528
vn 0.4444 -0.3845 0.8091
vn 0.3658 -0.7139 0.5971
vn 0.4997 0.2784 0.8203
vn 0.1468 -0.8752 0.4609
vn 0.3384 0.4851 0.8063
vn 0.0999 -0.9565 0.2740
vn 0.2449 -0.5781 0.7784
vn 0.2602 0.4794 0.8381
vn 0.0990 0.1259 0.9871
vn 0.0606 -0.7387 0.6713
vn 0.1062 -0.1066 0.9886
vn -0.0244 0.6364 0.7709
vn 0.0124 0.5954 0.8033
vn 0.0931 -0.3844 0.9185
vn -0.2892 0.1179 0.9500
vn -0.0267 -0.6065 0.7947
vn -0.0893 0.4806 0.8724
vn -0.2585 -0.5660 0.7829
vn -0.2953 -0.0950 0.9507
vn -0.4145 0.4716 0.7783
vn -0.2737 -0.2005 0.9407
vn -0.3641 0.6375 0.6790
vn -0.2959 -0.7707 0.5643
vn -0.2263 -0.8846 0.4077
vn -0.1459 -0.9585 0.2447
vn -0.6530 0.1123 0.7490
vn -0.5854 0.3078 0.7500
vn -0.6404 -0.0943 0.7623
vn -0.6111 -0.3097 0.7285
vn -0.7864 0.4418 0.4316
vn -0.5562 -0.5594 0.6146
vn -0.8871 -0.1154 0.4469
vn -0.5123 -0.8272 0.2307
vn -0.8482 0.1326 0.5128
vn -0.6784 0.6374 0.3654
vn -0.8292 -0.2932 0.4759
vn -0.8157 -0.4621 0.3481
vn -0.5738 -0.7672 0.2868
vn -0.7688 0.6346 0.0790
vn -0.9634 -0.0701 0.2586
vn -0.8427 0.4836 0.2366
vn -0.9290 0.3588 0.0913
vn -0.3855 -0.9224 0.0255
vn -0.9114 -0.3942 0.1184
vn -0.8845 0.4576 0.0912
vn -0.7135 -0.6952 0.0871
vn -0.8905 -0.4468 -0.0861
vn -0.9908 0.0763 -0.1119
vn -0.6637 -0.7432 -0.0848
vn -0.8539 0.4582 -0.2468
vn -0.8953 0.3593 -0.2635
vn -0.7433 -0.6211 -0.2487
vn -0.7647 0.4533 -0.4581
vn -0.5086 -0.8517 -0.1264
vn -0.8102 -0.3894 -0.4382
vn -0.6608 0.6522 -0.3715
vn -0.8795 0.1283 -0.4583
vn -0.8625 -0.2677 -0.4294
vn -0.4769 0.6497 -0.5920
vn -0.7455 0.5711 -0.3437
vn -0.7466 -0.0790 -0.6606
vn -0.7614 -0.2097 -0.6134
vn -0.7276 0.4684 -0.5012
vn -0.4306 -0.8354 -0.3415
vn -0.7420 0.3487 -0.5727
vn -0.6329 0.1838 -0.7521
vn -0.5731 -0.4484 -0.6859
vn -0.0673 0.6588 -0.7493
vn -0.4835 -0.2124 -0.8492
vn -0.3405 -0.6217 -0.7054
vn -0.3340 -0.7109 -0.6190
vn -0.4587 0.3753 -0.8054
vn -0.1962 -0.9315 -0.3064
vn -0.2910 0.5081 -0.8107
vn -0.1331 -0.8412 -0.5240
vn -0.3127 0.0937 -0.9452
vn -0.1859 -0.0959 -0.9779
vn -0.2744 0.5927 -0.7573
vn -0.2742 -0.3775 -0.8845
vn -0.1519 0.4794 -0.8644
vn -0.0809 0.4451 -0.8918
vn -0.1012 0.2987 -0.9490
usemtl Material.001
s off
f 89/1/1 150/2/1 24/3/1
f 1/4/2 9/5/2 19/6/2
f 6/7/3 7/8/3 2/9/3
f 8/10/4 24/3/4 150/2/4
f 2/9/5 7/8/5 12/11/5
f 10/12/6 11/13/6 5/14/6
f 15/15/7 24/3/7 8/10/7
f 18/16/8 28/17/8 15/15/8
f 16/18/9 17/19/9 7/8/9
f 7/8/10 17/19/10 12/11/10
f 9/5/11 103/20/11 29/21/11
f 19/6/12 20/22/12 10/12/12
f 18/16/13 23/23/13 27/24/13
f 21/25/14 25/26/14 16/18/14
f 24/3/15 28/17/15 45/27/15
f 25/26/16 32/28/16 17/19/16
f 29/21/17 30/29/17 19/6/17
f 19/6/18 30/29/18 20/22/18
f 89/30/19 24/3/19 65/31/19
f 33/32/20 37/33/20 27/24/20
f 31/34/21 32/28/21 25/26/21
f 24/3/22 45/27/22 65/31/22
f 31/34/23 38/35/23 32/28/23
f 29/21/24 103/36/24 49/37/24
f 33/32/25 36/38/25 37/33/25
f 39/39/26 40/40/26 38/35/26
f 37/33/27 44/41/27 34/42/27
f 34/42/28 44/41/28 48/43/28
f 35/44/29 38/35/29 41/45/29
f 40/40/30 46/46/30 38/35/30
f 42/47/31 41/45/31 47/48/31
f 39/39/32 49/37/32 50/49/32
f 39/39/33 50/49/33 55/50/33
f 43/51/34 53/52/34 44/41/34
f 45/27/35 48/43/35 60/53/35
f 41/45/36 46/46/36 51/54/36
f 47/48/37 52/55/37 42/47/37
f 47/48/38 51/54/38 59/56/38
f 55/50/39 56/57/39 46/46/39
f 48/43/40 54/58/40 68/59/40
f 56/57/41 57/60/41 58/61/41
f 49/37/42 103/62/42 61/63/42
f 59/56/43 63/64/43 52/55/43
f 52/55/44 63/64/44 53/52/44
f 58/61/45 57/60/45 62/65/45
f 69/66/46 70/67/46 55/50/46
f 63/64/47 67/68/47 64/69/47
f 67/68/48 75/70/48 64/69/48
f 66/71/49 71/72/49 57/60/49
f 65/31/50 60/53/50 89/73/50
f 62/65/51 71/72/51 72/74/51
f 61/63/52 103/75/52 82/76/52
f 73/77/53 74/78/53 67/68/53
f 70/67/54 76/79/54 66/71/54
f 68/59/55 75/70/55 87/80/55
f 74/78/56 86/81/56 75/70/56
f 76/79/57 78/82/57 71/72/57
f 69/66/58 82/76/58 83/83/58
f 73/77/59 80/84/59 81/85/59
f 81/85/60 80/84/60 85/86/60
f 77/87/61 90/88/61 78/82/61
f 78/82/62 90/88/62 91/89/62
f 85/86/63 93/90/63 81/85/63
f 85/86/64 92/91/64 93/90/64
f 93/90/65 101/92/65 86/81/65
f 82/76/66 103/93/66 94/94/66
f 90/88/67 97/95/67 98/96/67
f 96/97/68 97/95/68 90/88/68
f 94/94/69 104/98/69 96/97/69
f 98/96/70 109/99/70 105/100/70
f 104/98/71 107/101/71 96/97/71
f 100/102/72 110/103/72 101/92/72
f 106/104/73 116/105/73 110/103/73
f 105/100/74 109/99/74 113/106/74
f 105/100/75 113/106/75 114/107/75
f 94/94/76 103/108/76 120/109/76
f 112/110/77 111/111/77 138/112/77
f 114/107/78 115/113/78 106/104/78
f 104/98/79 121/114/79 107/101/79
f 116/105/80 119/115/80 110/103/80
f 113/116/81 118/117/81 122/118/81
f 114/119/82 123/120/82 115/121/82
f 120/122/83 121/123/83 104/124/83
f 115/121/84 123/120/84 124/125/84
f 123/120/85 122/118/85 129/126/85
f 124/125/86 130/127/86 119/128/86
f 121/123/87 126/129/87 117/130/87
f 122/118/88 127/131/88 128/132/88
f 138/133/89 150/2/89 125/134/89
f 120/122/90 103/135/90 145/136/90
f 89/137/91 125/134/91 150/2/91
f 129/126/92 128/132/92 135/138/92
f 134/139/93 137/140/93 130/127/93
f 132/141/94 133/142/94 126/129/94
f 130/127/95 137/140/95 131/143/95
f 131/143/96 137/140/96 144/144/96
f 128/132/97 133/142/97 141/145/97
f 136/146/98 143/147/98 134/139/98
f 139/148/99 146/149/99 132/141/99
f 135/138/100 142/150/100 136/146/100
f 143/147/101 3/151/101 137/140/101
f 133/142/102 140/152/102 148/153/102
f 144/144/103 8/10/103 138/133/103
f 135/138/104 141/145/104 142/150/104
f 144/144/105 4/154/105 15/15/105
f 141/145/106 148/153/106 2/9/106
f 145/136/107 1/4/107 139/148/107
f 142/150/108 149/155/108 143/147/108
f 146/149/109 147/156/109 140/152/109
f 146/149/110 1/4/110 10/12/110
f 145/136/111 103/157/111 9/5/111
f 14/158/112 3/151/112 149/155/112 13/159/112
f 1/4/113 19/6/113 10/12/113
f 14/158/114 18/16/114 4/154/114 3/151/114
f 16/18/115 6/7/115 5/14/115 11/13/115
f 4/154/116 18/16/116 15/15/116
f 21/25/117 11/13/117 10/12/117 20/22/117
f 7/8/118 6/7/118 16/18/118
f 22/160/119 13/159/119 12/11/119 17/19/119
f 14/158/120 23/23/120 18/16/120
f 11/13/121 21/25/121 16/18/121
f 15/15/122 28/17/122 24/3/122
f 26/161/123 33/32/123 23/23/123 22/160/123
f 9/5/124 29/21/124 19/6/124
f 13/159/125 22/160/125 23/23/125
f 14/158/126 13/159/126 23/23/126
f 17/19/127 26/161/127 22/160/127
f 28/17/128 18/16/128 27/24/128
f 16/18/129 25/26/129 17/19/129
f 21/25/130 31/34/130 25/26/130
f 26/161/131 17/19/131 32/28/131
f 31/34/132 21/25/132 20/22/132 30/29/132
f 23/23/133 33/32/133 27/24/133
f 35/44/134 36/38/134 26/161/134 32/28/134
f 26/161/135 36/38/135 33/32/135
f 27/24/136 37/33/136 34/42/136
f 28/17/137 27/24/137 34/42/137
f 45/27/138 28/17/138 34/42/138
f 49/37/139 39/39/139 30/29/139 29/21/139
f 35/44/140 32/28/140 38/35/140
f 38/35/141 31/34/141 30/29/141 39/39/141
f 42/47/142 43/51/142 37/33/142 36/38/142
f 41/45/143 42/47/143 36/38/143 35/44/143
f 37/33/144 43/51/144 44/41/144
f 34/42/145 48/43/145 45/27/145
f 52/55/146 53/52/146 43/51/146 42/47/146
f 41/45/147 38/35/147 46/46/147
f 13/159/148 149/155/148 2/9/148 12/11/148
f 46/46/149 40/40/149 39/39/149 55/50/149
f 69/66/150 50/49/150 49/37/150 61/63/150
f 44/41/151 53/52/151 54/58/151
f 48/43/152 44/41/152 54/58/152
f 45/27/153 60/53/153 65/31/153
f 47/48/154 41/45/154 51/54/154
f 48/43/155 68/59/155 60/53/155
f 51/54/156 46/46/156 58/61/156
f 47/48/157 59/56/157 52/55/157
f 46/46/158 56/57/158 58/61/158
f 50/49/159 69/66/159 55/50/159
f 53/52/160 63/64/160 64/69/160
f 54/58/161 53/52/161 64/69/161
f 54/58/162 64/69/162 68/59/162
f 59/56/163 51/54/163 58/61/163
f 66/71/164 56/57/164 55/50/164 70/67/164
f 59/56/165 58/61/165 62/65/165
f 59/56/166 62/65/166 63/64/166
f 73/77/167 63/64/167 62/65/167 72/74/167
f 56/57/168 66/71/168 57/60/168
f 63/64/169 73/77/169 67/68/169
f 68/59/170 64/69/170 75/70/170
f 62/65/171 57/60/171 71/72/171
f 88/162/172 60/53/172 68/59/172 87/80/172
f 61/63/173 82/76/173 69/66/173
f 89/73/174 60/53/174 88/162/174
f 67/68/175 74/78/175 75/70/175
f 66/71/176 76/79/176 71/72/176
f 78/82/177 79/163/177 72/74/177 71/72/177
f 87/80/178 75/70/178 86/81/178
f 80/84/179 73/77/179 72/74/179 79/163/179
f 77/87/180 76/79/180 70/67/180 83/83/180
f 69/66/181 83/83/181 70/67/181
f 73/77/182 81/85/182 74/78/182
f 91/89/183 84/164/183 79/163/183 78/82/183
f 86/81/184 74/78/184 81/85/184
f 76/79/185 77/87/185 78/82/185
f 81/85/186 93/90/186 86/81/186
f 92/91/187 80/84/187 79/163/187 84/164/187
f 96/97/188 83/83/188 82/76/188 94/94/188
f 85/86/189 80/84/189 92/91/189
f 90/88/190 77/87/190 83/83/190 96/97/190
f 101/92/191 102/165/191 87/80/191 86/81/191
f 112/110/192 88/162/192 87/80/192 102/165/192
f 112/110/193 125/166/193 89/73/193 88/162/193
f 98/96/194 99/167/194 84/164/194 91/89/194
f 91/89/195 90/88/195 98/96/195
f 95/168/196 92/91/196 84/164/196 99/167/196
f 95/168/197 100/102/197 93/90/197 92/91/197
f 108/169/198 109/99/198 98/96/198 97/95/198
f 93/90/199 100/102/199 101/92/199
f 106/104/200 95/168/200 99/167/200 105/100/200
f 102/165/201 111/111/201 112/110/201
f 99/167/202 98/96/202 105/100/202
f 108/169/203 97/95/203 96/97/203 107/101/203
f 100/102/204 95/168/204 106/104/204
f 100/102/205 106/104/205 110/103/205
f 110/103/206 111/111/206 102/165/206 101/92/206
f 117/170/207 108/169/207 107/101/207 121/114/207
f 105/100/208 114/107/208 106/104/208
f 94/94/209 120/109/209 104/98/209
f 113/106/210 109/99/210 118/171/210
f 125/166/211 112/110/211 138/112/211
f 106/104/212 115/113/212 116/105/212
f 117/170/213 118/171/213 109/99/213 108/169/213
f 111/111/214 110/103/214 119/115/214
f 119/128/215 116/172/215 115/121/215 124/125/215
f 122/118/216 123/120/216 114/119/216 113/116/216
f 111/173/217 119/128/217 131/143/217
f 126/129/218 127/131/218 118/117/218 117/130/218
f 122/118/219 118/117/219 127/131/219
f 119/128/220 130/127/220 131/143/220
f 139/148/221 121/123/221 120/122/221 145/136/221
f 111/173/222 131/143/222 138/133/222
f 124/125/223 134/139/223 130/127/223
f 121/123/224 132/141/224 126/129/224
f 129/126/225 122/118/225 128/132/225
f 129/126/226 134/139/226 124/125/226 123/120/226
f 140/152/227 133/142/227 132/141/227 146/149/227
f 121/123/228 139/148/228 132/141/228
f 129/126/229 135/138/229 136/146/229
f 129/126/230 136/146/230 134/139/230
f 127/131/231 126/129/231 133/142/231
f 131/143/232 144/144/232 138/133/232
f 128/132/233 127/131/233 133/142/233
f 135/138/234 128/132/234 141/145/234
f 134/139/235 143/147/235 137/140/235
f 10/12/236 5/14/236 147/156/236 146/149/236
f 136/146/237 142/150/237 143/147/237
f 137/140/238 3/151/238 4/154/238
f 144/144/239 137/140/239 4/154/239
f 141/145/240 133/142/240 148/153/240
f 138/133/241 8/10/241 150/2/241
f 148/153/242 140/152/242 147/156/242
f 144/144/243 15/15/243 8/10/243
f 142/150/244 141/145/244 2/9/244
f 142/150/245 2/9/245 149/155/245
f 139/148/246 1/4/246 146/149/246
f 143/147/247 149/155/247 3/151/247
f 1/4/248 145/136/248 9/5/248
f 5/14/249 6/7/249 148/153/249 147/156/249
f 2/9/250 148/153/250 6/7/250
