# Blender v2.93.6 OBJ File: 'Earth-Crystal.blend'
# www.blender.org
mtllib Earth-Crystal.mtl
o Icosphere_Icosphere.001
v 1.016345 0.441110 0.671363
v 1.124775 1.502830 1.405082
v 0.857973 1.361685 0.638233
v 1.323284 1.321812 0.574182
v 1.589985 1.321812 1.058788
v 1.042254 1.968376 0.941265
v 1.204011 0.128980 1.058788
v 1.121490 0.594526 1.405082
v 1.507856 0.594529 1.126758
v 0.737160 0.466587 1.000026
v 1.362550 0.594528 0.673297
v 1.269568 1.095143 1.450707
v 0.719201 1.357973 1.236503
v 0.649259 1.002214 1.000026
v 1.276977 1.879004 1.111801
vt 0.727273 0.000000
vt 0.805311 0.137153
vt 0.659399 0.117562
vt 0.681408 0.288606
vt 0.318798 0.157461
vt 0.341334 0.274305
vt 0.181819 0.236191
vt 0.136980 0.157461
vt 0.014940 0.289045
vt 0.523152 0.274305
vt 0.500617 0.157461
vt 0.135748 0.314921
vt 0.272728 0.393651
vt 0.067460 0.431766
vt 0.893102 0.289045
vt 0.818182 0.393651
vt 0.648662 0.412450
vt 0.409092 0.393651
vt 0.477581 0.432483
vt 0.136365 0.393651
vt 0.818182 0.236191
vt 0.863935 0.116845
vt 1.000000 0.157461
vt 0.522006 0.040616
vt 0.613329 0.117562
vt 0.932126 0.039899
vt 0.363637 0.078731
vt 0.194117 0.059932
vn -0.5118 -0.7730 -0.3748
vn -0.7590 -0.1533 -0.6328
vn 0.7823 -0.0302 0.6221
vn -0.3545 0.0196 0.9349
vn -0.1412 -0.0598 -0.9882
vn 0.8759 -0.0184 -0.4821
vn 0.6416 0.2930 0.7088
vn -0.4806 0.5747 0.6624
vn -0.9026 0.3775 -0.2070
vn -0.0815 0.4651 -0.8815
vn 0.7715 0.4738 -0.4246
vn 0.6129 0.5744 -0.5426
vn -0.2630 0.6571 0.7064
vn -0.9226 0.3223 -0.2120
vn -0.3747 -0.0294 0.9267
vn 0.6422 0.3067 0.7025
vn 0.0637 -0.1314 -0.9893
vn -0.7970 -0.1308 -0.5897
vn -0.8699 -0.1428 0.4721
vn -0.6781 -0.2012 0.7069
vn 0.5675 -0.2396 0.7878
vn 0.9436 -0.1348 -0.3024
vn 0.2994 -0.6669 -0.6823
vn -0.4965 -0.5730 0.6521
vn 0.8249 -0.4998 -0.2643
vn 0.5228 -0.4472 0.7257
usemtl Material.001
s off
f 7/1/1 10/2/1 1/3/1
f 1/3/2 10/2/2 3/4/2
f 9/5/3 5/6/3 12/7/3
f 8/8/4 12/7/4 13/9/4
f 1/3/5 3/4/5 4/10/5
f 11/11/6 4/10/6 5/6/6
f 2/12/7 5/6/7 15/13/7
f 13/9/8 2/12/8 6/14/8
f 3/4/9 13/15/9 6/16/9
f 4/10/10 3/4/10 6/17/10
f 5/6/11 4/10/11 15/18/11
f 15/18/12 4/10/12 6/19/12
f 6/14/13 2/12/13 15/20/13
f 14/21/14 13/15/14 3/4/14
f 13/9/15 12/7/15 2/12/15
f 12/7/16 5/6/16 2/12/16
f 11/11/17 1/3/17 4/10/17
f 3/4/18 10/2/18 14/21/18
f 14/21/19 10/22/19 13/15/19
f 10/22/20 8/23/20 13/15/20
f 8/8/21 9/5/21 12/7/21
f 9/5/22 11/11/22 5/6/22
f 7/24/23 1/25/23 11/11/23
f 7/26/24 8/23/24 10/22/24
f 9/5/25 7/27/25 11/11/25
f 7/28/26 9/5/26 8/8/26
