# Blender v3.0.1 OBJ File: 'WoodLog.blend'
# www.blender.org
mtllib WoodLog.mtl
o Cylinder_Cylinder.001
v -0.000000 3.491665 -0.863440
v -0.000000 -0.002218 -0.863440
v 0.168449 3.491665 -0.846849
v 0.168449 -0.002218 -0.846849
v 0.330424 3.491665 -0.797715
v 0.330424 -0.002218 -0.797715
v 0.479702 3.491665 -0.717924
v 0.479702 -0.002218 -0.717924
v 0.610544 3.491665 -0.610544
v 0.610544 -0.002218 -0.610544
v 0.717924 3.491665 -0.479702
v 0.717924 -0.002218 -0.479702
v 0.797715 3.491665 -0.330424
v 0.797715 -0.002218 -0.330424
v 0.846849 3.491665 -0.168449
v 0.846849 -0.002218 -0.168449
v 0.863440 3.491665 0.000000
v 0.863440 -0.002218 0.000000
v 0.846849 3.491665 0.168449
v 0.846849 -0.002218 0.168449
v 0.797715 3.491665 0.330424
v 0.797715 -0.002218 0.330424
v 0.717924 3.491665 0.479702
v 0.717924 -0.002218 0.479702
v 0.610544 3.491665 0.610544
v 0.610544 -0.002218 0.610544
v 0.479702 3.491665 0.717924
v 0.479702 -0.002218 0.717924
v 0.330424 3.491665 0.797715
v 0.330424 -0.002218 0.797715
v 0.168449 3.491665 0.846849
v 0.168449 -0.002218 0.846849
v -0.000000 3.491665 0.863440
v -0.000000 -0.002218 0.863440
v -0.168449 3.491665 0.846849
v -0.168449 -0.002218 0.846849
v -0.330424 3.491665 0.797715
v -0.330424 -0.002218 0.797715
v -0.479702 3.491665 0.717924
v -0.479702 -0.002218 0.717924
v -0.610544 3.491665 0.610544
v -0.610544 -0.002218 0.610544
v -0.717924 3.491665 0.479702
v -0.717924 -0.002218 0.479702
v -0.797715 3.491665 0.330424
v -0.797715 -0.002218 0.330424
v -0.846849 3.491665 0.168449
v -0.846849 -0.002218 0.168449
v -0.863440 3.491665 -0.000000
v -0.863440 -0.002218 -0.000000
v -0.846849 3.491665 -0.168449
v -0.846849 -0.002218 -0.168449
v -0.797715 3.491665 -0.330424
v -0.797715 -0.002218 -0.330424
v -0.717924 3.491665 -0.479701
v -0.717924 -0.002218 -0.479701
v -0.610544 3.491665 -0.610544
v -0.610544 -0.002218 -0.610544
v -0.479702 3.491665 -0.717924
v -0.479702 -0.002218 -0.717924
v -0.330424 3.491665 -0.797715
v -0.330424 -0.002218 -0.797715
v -0.168449 3.491665 -0.846849
v -0.168449 -0.002218 -0.846849
v 0.000000 3.491665 -0.959894
v 0.187266 3.491665 -0.941450
v 0.367336 3.491665 -0.886826
v 0.533289 3.491665 -0.798123
v 0.678748 3.491665 -0.678748
v 0.798123 3.491665 -0.533289
v 0.886826 3.491665 -0.367336
v 0.941450 3.491665 -0.187266
v 0.959894 3.491665 0.000000
v 0.941450 3.491665 0.187266
v 0.886826 3.491665 0.367335
v 0.798123 3.491665 0.533288
v 0.678748 3.491665 0.678748
v 0.533288 3.491665 0.798123
v 0.367336 3.491665 0.886826
v 0.187266 3.491665 0.941450
v -0.000000 3.491665 0.959894
v -0.187266 3.491665 0.941450
v -0.367336 3.491665 0.886826
v -0.533289 3.491665 0.798123
v -0.678747 3.491665 0.678748
v -0.798123 3.491665 0.533289
v -0.886826 3.491665 0.367336
v -0.941450 3.491665 0.187266
v -0.959894 3.491665 -0.000000
v -0.941450 3.491665 -0.187266
v -0.886826 3.491665 -0.367336
v -0.798123 3.491665 -0.533288
v -0.678748 3.491665 -0.678747
v -0.533289 3.491665 -0.798123
v -0.367336 3.491665 -0.886826
v -0.187266 3.491665 -0.941450
v 0.187266 -0.002218 -0.941450
v 0.000000 -0.002218 -0.959894
v 0.367336 -0.002218 -0.886826
v 0.533289 -0.002218 -0.798123
v 0.678748 -0.002218 -0.678748
v 0.798123 -0.002218 -0.533289
v 0.886826 -0.002218 -0.367336
v 0.941450 -0.002218 -0.187266
v 0.959894 -0.002218 0.000000
v 0.941450 -0.002218 0.187266
v 0.886826 -0.002218 0.367335
v 0.798123 -0.002218 0.533288
v 0.678748 -0.002218 0.678748
v 0.533288 -0.002218 0.798123
v 0.367336 -0.002218 0.886826
v 0.187266 -0.002218 0.941450
v -0.000000 -0.002218 0.959894
v -0.187266 -0.002218 0.941450
v -0.367336 -0.002218 0.886826
v -0.533289 -0.002218 0.798123
v -0.678747 -0.002218 0.678748
v -0.798123 -0.002218 0.533289
v -0.886826 -0.002218 0.367336
v -0.941450 -0.002218 0.187266
v -0.959894 -0.002218 -0.000000
v -0.941450 -0.002218 -0.187266
v -0.886826 -0.002218 -0.367336
v -0.798123 -0.002218 -0.533288
v -0.678748 -0.002218 -0.678747
v -0.533289 -0.002218 -0.798123
v -0.367336 -0.002218 -0.886826
v -0.187266 -0.002218 -0.941450
vt 0.884293 0.012360
vt 0.846523 0.012360
vt 0.846522 0.397711
vt 0.884293 0.397711
vt 0.809477 0.012360
vt 0.809477 0.397711
vt 0.774581 0.012360
vt 0.774581 0.397711
vt 0.743176 0.012360
vt 0.743176 0.397711
vt 0.716468 0.012360
vt 0.716468 0.397711
vt 0.691748 0.422431
vt 0.660342 0.422431
vt 0.660342 0.807782
vt 0.691748 0.807782
vt 0.625446 0.422431
vt 0.625446 0.807782
vt 0.588401 0.422431
vt 0.588401 0.807782
vt 0.550630 0.422431
vt 0.550630 0.807782
vt 0.513585 0.422431
vt 0.513585 0.807782
vt 0.478689 0.422431
vt 0.478689 0.807782
vt 0.447284 0.422431
vt 0.447284 0.807782
vt 0.420576 0.422431
vt 0.420576 0.807782
vt 0.987640 0.422431
vt 0.956234 0.422431
vt 0.956234 0.807782
vt 0.987640 0.807782
vt 0.921338 0.422431
vt 0.921338 0.807782
vt 0.884293 0.422431
vt 0.884293 0.807782
vt 0.846522 0.422431
vt 0.846522 0.807782
vt 0.809477 0.422431
vt 0.809477 0.807782
vt 0.774581 0.422431
vt 0.774581 0.807782
vt 0.743176 0.422431
vt 0.743176 0.807782
vt 0.716468 0.422431
vt 0.716468 0.807782
vt 0.691748 0.012360
vt 0.660342 0.012360
vt 0.660342 0.397711
vt 0.691748 0.397711
vt 0.625446 0.012360
vt 0.625446 0.397711
vt 0.588401 0.012360
vt 0.588401 0.397711
vt 0.550630 0.012360
vt 0.550630 0.397711
vt 0.513585 0.012360
vt 0.513585 0.397711
vt 0.478689 0.012360
vt 0.478689 0.397711
vt 0.447284 0.012360
vt 0.447284 0.397711
vt 0.420576 0.012360
vt 0.420576 0.397711
vt 0.987640 0.012360
vt 0.956235 0.012360
vt 0.956234 0.397711
vt 0.987640 0.397711
vt 0.051258 0.285808
vt 0.070134 0.314057
vt 0.094158 0.338082
vt 0.122408 0.356958
vt 0.153797 0.369959
vt 0.187120 0.376588
vt 0.221096 0.376588
vt 0.254418 0.369959
vt 0.285808 0.356957
vt 0.314057 0.338082
vt 0.338082 0.314057
vt 0.356958 0.285808
vt 0.369959 0.254418
vt 0.376588 0.221096
vt 0.376588 0.187120
vt 0.369959 0.153797
vt 0.356957 0.122408
vt 0.338082 0.094158
vt 0.314057 0.070134
vt 0.285808 0.051258
vt 0.254418 0.038256
vt 0.221096 0.031628
vt 0.187120 0.031628
vt 0.153797 0.038256
vt 0.122408 0.051258
vt 0.094158 0.070134
vt 0.070134 0.094158
vt 0.051258 0.122408
vt 0.038256 0.153797
vt 0.031628 0.187120
vt 0.031628 0.221096
vt 0.038256 0.254418
vt 0.921339 0.012360
vt 0.921339 0.397711
vt 0.038256 0.662634
vt 0.051258 0.694023
vt 0.070134 0.722273
vt 0.094158 0.746297
vt 0.122408 0.765173
vt 0.153797 0.778175
vt 0.187120 0.784803
vt 0.221096 0.784803
vt 0.254418 0.778175
vt 0.285808 0.765173
vt 0.314057 0.746297
vt 0.338082 0.722273
vt 0.356957 0.694023
vt 0.369959 0.662634
vt 0.376588 0.629311
vt 0.376588 0.595335
vt 0.369959 0.562013
vt 0.356957 0.530623
vt 0.338082 0.502373
vt 0.314057 0.478349
vt 0.285808 0.459473
vt 0.254418 0.446471
vt 0.221095 0.439843
vt 0.187120 0.439843
vt 0.153797 0.446471
vt 0.122408 0.459473
vt 0.094158 0.478349
vt 0.070134 0.502374
vt 0.051258 0.530623
vt 0.038256 0.562013
vt 0.031628 0.595335
vt 0.031628 0.629311
vt 0.012360 0.631209
vt 0.019729 0.668254
vt 0.012360 0.593438
vt 0.019729 0.556392
vt 0.034183 0.521497
vt 0.055168 0.490091
vt 0.081876 0.463383
vt 0.113281 0.442399
vt 0.148177 0.427944
vt 0.185222 0.420576
vt 0.222993 0.420576
vt 0.260038 0.427944
vt 0.294934 0.442399
vt 0.326340 0.463383
vt 0.353048 0.490091
vt 0.374032 0.521497
vt 0.388487 0.556392
vt 0.395855 0.593438
vt 0.395855 0.631209
vt 0.388487 0.668254
vt 0.374032 0.703150
vt 0.353048 0.734555
vt 0.326340 0.761263
vt 0.294934 0.782248
vt 0.260038 0.796702
vt 0.222993 0.804071
vt 0.185222 0.804071
vt 0.148177 0.796702
vt 0.113281 0.782248
vt 0.081876 0.761263
vt 0.055168 0.734555
vt 0.034183 0.703150
vt 0.019729 0.260038
vt 0.034183 0.294934
vt 0.055168 0.326340
vt 0.081876 0.353048
vt 0.113281 0.374032
vt 0.148177 0.388487
vt 0.185222 0.395855
vt 0.222993 0.395855
vt 0.260038 0.388487
vt 0.294934 0.374032
vt 0.326340 0.353048
vt 0.353048 0.326340
vt 0.374032 0.294934
vt 0.388487 0.260038
vt 0.395855 0.222993
vt 0.395855 0.185222
vt 0.388487 0.148177
vt 0.374032 0.113281
vt 0.353048 0.081876
vt 0.326340 0.055168
vt 0.294934 0.034183
vt 0.260038 0.019729
vt 0.222993 0.012360
vt 0.185222 0.012360
vt 0.148177 0.019729
vt 0.113281 0.034183
vt 0.081876 0.055168
vt 0.055168 0.081876
vt 0.034183 0.113281
vt 0.019729 0.148177
vt 0.012360 0.185222
vt 0.012360 0.222993
vn 0.0980 0.0000 -0.9952
vn 0.2903 0.0000 -0.9569
vn 0.4714 0.0000 -0.8819
vn 0.6344 0.0000 -0.7730
vn 0.7730 0.0000 -0.6344
vn 0.8819 0.0000 -0.4714
vn 0.9569 0.0000 -0.2903
vn 0.9952 0.0000 -0.0980
vn 0.9952 0.0000 0.0980
vn 0.9569 0.0000 0.2903
vn 0.8819 0.0000 0.4714
vn 0.7730 0.0000 0.6344
vn 0.6344 0.0000 0.7730
vn 0.4714 0.0000 0.8819
vn 0.2903 0.0000 0.9569
vn 0.0980 0.0000 0.9952
vn -0.0980 0.0000 0.9952
vn -0.2903 0.0000 0.9569
vn -0.4714 0.0000 0.8819
vn -0.6344 0.0000 0.7730
vn -0.7730 0.0000 0.6344
vn -0.8819 0.0000 0.4714
vn -0.9569 0.0000 0.2903
vn -0.9952 0.0000 0.0980
vn -0.9952 0.0000 -0.0980
vn -0.9569 0.0000 -0.2903
vn -0.8819 0.0000 -0.4714
vn -0.7730 0.0000 -0.6344
vn -0.6344 0.0000 -0.7730
vn -0.4714 0.0000 -0.8819
vn 0.0000 -1.0000 0.0000
vn -0.2903 0.0000 -0.9569
vn -0.0980 0.0000 -0.9952
vn 0.0000 1.0000 -0.0000
usemtl LogTexture
s off
f 65/1/1 66/2/1 97/3/1 98/4/1
f 66/2/2 67/5/2 99/6/2 97/3/2
f 67/5/3 68/7/3 100/8/3 99/6/3
f 68/7/4 69/9/4 101/10/4 100/8/4
f 69/9/5 70/11/5 102/12/5 101/10/5
f 70/13/6 71/14/6 103/15/6 102/16/6
f 71/14/7 72/17/7 104/18/7 103/15/7
f 72/17/8 73/19/8 105/20/8 104/18/8
f 73/19/9 74/21/9 106/22/9 105/20/9
f 74/21/10 75/23/10 107/24/10 106/22/10
f 75/23/11 76/25/11 108/26/11 107/24/11
f 76/25/12 77/27/12 109/28/12 108/26/12
f 77/27/13 78/29/13 110/30/13 109/28/13
f 78/31/14 79/32/14 111/33/14 110/34/14
f 79/32/15 80/35/15 112/36/15 111/33/15
f 80/35/16 81/37/16 113/38/16 112/36/16
f 81/37/17 82/39/17 114/40/17 113/38/17
f 82/39/18 83/41/18 115/42/18 114/40/18
f 83/41/19 84/43/19 116/44/19 115/42/19
f 84/43/20 85/45/20 117/46/20 116/44/20
f 85/45/21 86/47/21 118/48/21 117/46/21
f 86/49/22 87/50/22 119/51/22 118/52/22
f 87/50/23 88/53/23 120/54/23 119/51/23
f 88/53/24 89/55/24 121/56/24 120/54/24
f 89/55/25 90/57/25 122/58/25 121/56/25
f 90/57/26 91/59/26 123/60/26 122/58/26
f 91/59/27 92/61/27 124/62/27 123/60/27
f 92/61/28 93/63/28 125/64/28 124/62/28
f 93/63/29 94/65/29 126/66/29 125/64/29
f 94/67/30 95/68/30 127/69/30 126/70/30
f 4/71/31 6/72/31 8/73/31 10/74/31 12/75/31 14/76/31 16/77/31 18/78/31 20/79/31 22/80/31 24/81/31 26/82/31 28/83/31 30/84/31 32/85/31 34/86/31 36/87/31 38/88/31 40/89/31 42/90/31 44/91/31 46/92/31 48/93/31 50/94/31 52/95/31 54/96/31 56/97/31 58/98/31 60/99/31 62/100/31 64/101/31 2/102/31
f 95/68/32 96/103/32 128/104/32 127/69/32
f 96/103/33 65/1/33 98/4/33 128/104/33
f 1/105/34 63/106/34 61/107/34 59/108/34 57/109/34 55/110/34 53/111/34 51/112/34 49/113/34 47/114/34 45/115/34 43/116/34 41/117/34 39/118/34 37/119/34 35/120/34 33/121/34 31/122/34 29/123/34 27/124/34 25/125/34 23/126/34 21/127/34 19/128/34 17/129/34 15/130/34 13/131/34 11/132/34 9/133/34 7/134/34 5/135/34 3/136/34
f 3/136/34 66/137/34 65/138/34 1/105/34
f 5/135/34 67/139/34 66/137/34 3/136/34
f 7/134/34 68/140/34 67/139/34 5/135/34
f 9/133/34 69/141/34 68/140/34 7/134/34
f 11/132/34 70/142/34 69/141/34 9/133/34
f 13/131/34 71/143/34 70/142/34 11/132/34
f 15/130/34 72/144/34 71/143/34 13/131/34
f 17/129/34 73/145/34 72/144/34 15/130/34
f 19/128/34 74/146/34 73/145/34 17/129/34
f 21/127/34 75/147/34 74/146/34 19/128/34
f 23/126/34 76/148/34 75/147/34 21/127/34
f 25/125/34 77/149/34 76/148/34 23/126/34
f 27/124/34 78/150/34 77/149/34 25/125/34
f 29/123/34 79/151/34 78/150/34 27/124/34
f 31/122/34 80/152/34 79/151/34 29/123/34
f 33/121/34 81/153/34 80/152/34 31/122/34
f 35/120/34 82/154/34 81/153/34 33/121/34
f 37/119/34 83/155/34 82/154/34 35/120/34
f 39/118/34 84/156/34 83/155/34 37/119/34
f 41/117/34 85/157/34 84/156/34 39/118/34
f 43/116/34 86/158/34 85/157/34 41/117/34
f 45/115/34 87/159/34 86/158/34 43/116/34
f 47/114/34 88/160/34 87/159/34 45/115/34
f 49/113/34 89/161/34 88/160/34 47/114/34
f 51/112/34 90/162/34 89/161/34 49/113/34
f 53/111/34 91/163/34 90/162/34 51/112/34
f 55/110/34 92/164/34 91/163/34 53/111/34
f 57/109/34 93/165/34 92/164/34 55/110/34
f 59/108/34 94/166/34 93/165/34 57/109/34
f 61/107/34 95/167/34 94/166/34 59/108/34
f 63/106/34 96/168/34 95/167/34 61/107/34
f 1/105/34 65/138/34 96/168/34 63/106/34
f 2/102/31 98/169/31 97/170/31 4/71/31
f 4/71/31 97/170/31 99/171/31 6/72/31
f 6/72/31 99/171/31 100/172/31 8/73/31
f 8/73/31 100/172/31 101/173/31 10/74/31
f 10/74/31 101/173/31 102/174/31 12/75/31
f 12/75/31 102/174/31 103/175/31 14/76/31
f 14/76/31 103/175/31 104/176/31 16/77/31
f 16/77/31 104/176/31 105/177/31 18/78/31
f 18/78/31 105/177/31 106/178/31 20/79/31
f 20/79/31 106/178/31 107/179/31 22/80/31
f 22/80/31 107/179/31 108/180/31 24/81/31
f 24/81/31 108/180/31 109/181/31 26/82/31
f 26/82/31 109/181/31 110/182/31 28/83/31
f 28/83/31 110/182/31 111/183/31 30/84/31
f 30/84/31 111/183/31 112/184/31 32/85/31
f 32/85/31 112/184/31 113/185/31 34/86/31
f 34/86/31 113/185/31 114/186/31 36/87/31
f 36/87/31 114/186/31 115/187/31 38/88/31
f 38/88/31 115/187/31 116/188/31 40/89/31
f 40/89/31 116/188/31 117/189/31 42/90/31
f 42/90/31 117/189/31 118/190/31 44/91/31
f 44/91/31 118/190/31 119/191/31 46/92/31
f 46/92/31 119/191/31 120/192/31 48/93/31
f 48/93/31 120/192/31 121/193/31 50/94/31
f 50/94/31 121/193/31 122/194/31 52/95/31
f 52/95/31 122/194/31 123/195/31 54/96/31
f 54/96/31 123/195/31 124/196/31 56/97/31
f 56/97/31 124/196/31 125/197/31 58/98/31
f 58/98/31 125/197/31 126/198/31 60/99/31
f 60/99/31 126/198/31 127/199/31 62/100/31
f 62/100/31 127/199/31 128/200/31 64/101/31
f 64/101/31 128/200/31 98/169/31 2/102/31
