# Blender v2.93.6 OBJ File: 'Branch.blend'
# www.blender.org
mtllib Branch.mtl
o Cylinder
v 0.260191 0.622249 -0.230729
v -0.454779 0.235222 0.471091
v 0.036206 0.490579 -0.515898
v -0.612999 0.185387 0.230360
v -0.004860 0.152110 -0.696397
v -0.616261 -0.053621 0.052225
v 0.161049 -0.194888 -0.666492
v -0.462654 -0.341794 0.041032
v 0.436746 -0.347148 -0.443701
v -0.242159 -0.510324 0.203340
v 0.660732 -0.215478 -0.158533
v -0.083938 -0.460489 0.444070
v 0.701798 0.122992 0.021966
v -0.080676 -0.221481 0.622206
v 0.535888 0.469989 -0.007939
v -0.234283 0.066692 0.633398
v 1.197739 0.815533 -1.247013
v 1.103370 0.694016 -1.402704
v 1.152714 0.477811 -1.501250
v 1.316868 0.293568 -1.484923
v 1.499671 0.249214 -1.363288
v 1.594041 0.370732 -1.207597
v 1.544696 0.586936 -1.109051
v 1.380543 0.771179 -1.125378
v 2.173069 1.480052 -2.403250
v 2.102034 1.388582 -2.520443
v 2.139177 1.225839 -2.594620
v 2.262740 1.087155 -2.582331
v 2.400342 1.053768 -2.490773
v 2.471376 1.145237 -2.373580
v 2.434233 1.307981 -2.299402
v 2.310670 1.446666 -2.311692
v -2.303634 -0.901353 1.625411
v -2.205972 -0.868414 1.810981
v -2.272621 -1.059327 1.471929
v -2.131102 -1.249798 1.440444
v -1.961975 -1.361189 1.549399
v -1.864314 -1.328250 1.734969
v -1.895326 -1.170276 1.888451
v -2.036846 -0.979805 1.919936
v -3.993558 -2.203188 2.698575
v -3.861047 -2.158494 2.950366
v -3.951479 -2.417535 2.490324
v -3.759459 -2.675974 2.447603
v -3.529980 -2.827116 2.595438
v -3.397469 -2.782422 2.847229
v -3.439548 -2.568075 3.055480
v -3.631568 -2.309636 3.098201
v 0.759506 0.489468 -0.303361
v 0.918512 0.215643 -0.279596
v 0.247424 0.223217 -0.941922
v 0.255147 0.576281 -0.761423
v 0.912375 -0.064925 -0.423032
v 0.744689 -0.187882 -0.649645
v 0.466162 0.731010 -0.476254
v 0.513683 -0.081203 -0.826689
v 1.942920 2.354775 -0.491762
v 1.722062 2.426817 -0.830909
v 2.185461 2.285569 -0.707107
v 1.944527 2.346278 -1.041448
v -0.028521 0.012628 -2.651783
v 0.096170 -0.386983 -2.293306
v 0.236807 0.147566 -2.335365
v 0.395768 -0.253012 -1.903621
vt 1.000000 0.500000
vt 0.875000 0.500000
vt 0.875000 1.000000
vt 1.000000 1.000000
vt 0.750000 0.500000
vt 0.750000 1.000000
vt 0.625000 0.500000
vt 0.625000 1.000000
vt 0.500000 0.500000
vt 0.500000 1.000000
vt 0.375000 0.500000
vt 0.375000 1.000000
vt 0.250000 0.500000
vt 0.250000 1.000000
vt 0.625000 1.000000
vt 0.750000 1.000000
vt 0.125000 0.500000
vt 0.125000 1.000000
vt 0.000000 0.500000
vt 0.000000 1.000000
vt 0.250000 0.500000
vt 0.250000 0.500000
vt 0.125000 0.500000
vt 0.125000 0.500000
vt 0.250000 0.500000
vt 0.125000 0.500000
vt 0.875000 0.500000
vt 0.875000 0.500000
vt 0.750000 0.500000
vt 0.750000 0.500000
vt 0.500000 0.500000
vt 0.500000 0.500000
vt 0.375000 0.500000
vt 0.375000 0.500000
vt 0.000000 0.500000
vt 0.000000 0.500000
vt 1.000000 0.500000
vt 1.000000 0.500000
vt 0.625000 0.500000
vt 0.625000 0.500000
vt 0.500000 0.500000
vt 0.375000 0.500000
vt 0.750000 0.500000
vt 0.625000 0.500000
vt 1.000000 0.500000
vt 0.875000 0.500000
vt 0.000000 0.500000
vt 0.000000 1.000000
vt 0.000000 1.000000
vt 0.125000 1.000000
vt 0.125000 1.000000
vt 0.250000 1.000000
vt 0.375000 1.000000
vt 0.500000 1.000000
vt 0.875000 1.000000
vt 1.000000 1.000000
vt 0.250000 1.000000
vt 0.375000 1.000000
vt 0.500000 1.000000
vt 0.625000 1.000000
vt 0.750000 1.000000
vt 0.875000 1.000000
vt 1.000000 1.000000
vt 0.625000 0.500000
vt 0.750000 0.500000
vt 0.000000 0.500000
vt 0.125000 0.500000
vt 1.000000 0.500000
vt 1.000000 0.500000
vt 0.125000 0.500000
vt 0.000000 0.500000
vt 0.750000 0.500000
vt 0.625000 0.500000
vt 0.750000 0.490000
vt 0.580294 0.419706
vt 0.510000 0.250000
vt 0.580294 0.080294
vt 0.750000 0.010000
vt 0.919706 0.080294
vt 0.990000 0.250000
vt 0.919706 0.419706
vt 0.419706 0.419706
vt 0.490000 0.250000
vt 0.419706 0.080294
vt 0.250000 0.010000
vt 0.080294 0.080294
vt 0.010000 0.250000
vt 0.080294 0.419706
vt 0.250000 0.490000
vn -0.4423 0.8968 0.0120
vn -0.7671 0.3799 -0.5170
vn -0.6685 -0.3555 -0.6532
vn -0.2346 -0.8739 -0.4257
vn 0.3377 -0.9380 0.0783
vn 0.6548 -0.4344 0.6185
vn -0.5343 -0.2577 -0.8051
vn 0.5128 0.2818 0.8110
vn 0.0834 0.8159 0.5722
vn 0.5991 0.4788 0.6418
vn 0.5082 0.5140 0.6911
vn -0.5804 0.3238 -0.7472
vn 0.5932 -0.7983 0.1038
vn 0.2609 0.8686 0.4213
vn -0.3740 0.8801 -0.2924
vn -0.3581 -0.5235 -0.7731
vn 0.8078 -0.1999 0.5546
vn 0.0299 -0.8747 -0.4837
vn 0.7254 -0.6821 0.0927
vn -0.4633 -0.4789 -0.7457
vn -0.6747 0.7217 -0.1544
vn -0.0798 0.8919 0.4452
vn 0.8194 -0.0722 0.5686
vn 0.1293 -0.8531 -0.5055
vn -0.7737 0.1079 -0.6242
vn -0.0249 0.6795 0.7333
vn 0.6573 -0.4556 0.6004
vn -0.1125 -0.7678 -0.6307
vn 0.4788 0.2195 0.8500
vn -0.7234 0.4121 -0.5539
vn 0.4010 -0.9139 -0.0633
vn 0.0561 0.7340 0.6768
vn -0.4690 0.8761 0.1114
vn 0.7512 -0.3782 0.5410
vn 0.0787 -0.6335 -0.7698
vn -0.6955 0.4258 -0.5788
vn 0.4660 0.2039 0.8609
vn 0.6047 -0.7757 -0.1806
vn -0.4143 -0.1597 -0.8960
vn -0.5464 0.8256 0.1410
vn 0.0262 -0.8236 -0.5666
vn 0.7921 -0.3293 0.5139
vn 0.8827 0.4609 -0.0921
vn -0.4818 0.8734 -0.0711
vn 0.3938 -0.5454 -0.7399
vn 0.5087 -0.8601 0.0386
vn -0.7283 0.3568 -0.5850
vn 0.6937 0.4140 0.5894
vn -0.6862 0.3783 -0.6213
vn -0.4873 0.5727 0.6592
vn 0.6712 -0.3604 0.6477
vn -0.3626 0.9302 -0.0560
vn -0.9398 -0.3375 0.0545
vn 0.3205 -0.9414 0.1050
vn 0.5684 0.4451 -0.6919
vn -0.6756 -0.5777 0.4581
vn 0.2949 0.9554 -0.0139
vn 0.8001 -0.2533 -0.5437
usemtl Material.001
s off
f 1/1/1 3/2/1 4/3/1 2/4/1
f 3/2/2 5/5/2 6/6/2 4/3/2
f 5/5/3 7/7/3 8/8/3 6/6/3
f 7/7/4 9/9/4 10/10/4 8/8/4
f 9/9/5 11/11/5 12/12/5 10/10/5
f 11/11/6 13/13/6 14/14/6 12/12/6
f 8/8/7 36/15/7 35/16/7 6/6/7
f 13/13/8 15/17/8 16/18/8 14/14/8
f 15/17/9 1/19/9 2/20/9 16/18/9
f 50/21/10 23/22/10 24/23/10 49/24/10
f 23/22/11 31/25/11 32/26/11 24/23/11
f 52/27/12 18/28/12 19/29/12 51/30/12
f 54/31/13 21/32/13 22/33/13 53/34/13
f 49/24/14 24/23/14 17/35/14 55/36/14
f 55/37/15 17/38/15 18/28/15 52/27/15
f 51/30/16 19/29/16 20/39/16 56/40/16
f 53/34/17 22/33/17 23/22/17 50/21/17
f 56/40/18 20/39/18 21/32/18 54/31/18
f 21/32/19 29/41/19 30/42/19 22/33/19
f 19/29/20 27/43/20 28/44/20 20/39/20
f 17/38/21 25/45/21 26/46/21 18/28/21
f 24/23/22 32/26/22 25/47/22 17/35/22
f 22/33/23 30/42/23 31/25/23 23/22/23
f 20/39/24 28/44/24 29/41/24 21/32/24
f 18/28/25 26/46/25 27/43/25 19/29/25
f 34/48/26 42/49/26 48/50/26 40/51/26
f 14/14/27 39/52/27 38/53/27 12/12/27
f 10/10/28 37/54/28 36/15/28 8/8/28
f 16/18/29 40/51/29 39/52/29 14/14/29
f 6/6/30 35/16/30 33/55/30 4/3/30
f 12/12/31 38/53/31 37/54/31 10/10/31
f 2/20/32 34/48/32 40/51/32 16/18/32
f 4/3/33 33/55/33 34/56/33 2/4/33
f 39/52/34 47/57/34 46/58/34 38/53/34
f 37/54/35 45/59/35 44/60/35 36/15/35
f 35/16/36 43/61/36 41/62/36 33/55/36
f 40/51/37 48/50/37 47/57/37 39/52/37
f 38/53/38 46/58/38 45/59/38 37/54/38
f 36/15/39 44/60/39 43/61/39 35/16/39
f 33/55/40 41/62/40 42/63/40 34/56/40
f 7/7/41 56/40/41 54/31/41 9/9/41
f 11/11/42 53/34/42 50/21/42 13/13/42
f 56/40/43 64/64/43 63/65/43 51/30/43
f 1/1/44 55/37/44 52/27/44 3/2/44
f 55/36/45 60/66/45 59/67/45 49/24/45
f 9/9/46 54/31/46 53/34/46 11/11/46
f 3/2/47 52/27/47 51/30/47 5/5/47
f 13/13/48 50/21/48 49/24/48 15/17/48
f 1/1/49 58/68/49 60/69/49 55/37/49
f 15/17/50 57/70/50 58/71/50 1/19/50
f 49/24/51 59/67/51 57/70/51 15/17/51
f 51/30/52 63/65/52 61/72/52 5/5/52
f 5/5/53 61/72/53 62/73/53 7/7/53
f 7/7/54 62/73/54 64/64/54 56/40/54
usemtl Material.002
f 25/74/55 32/75/55 31/76/55 30/77/55 29/78/55 28/79/55 27/80/55 26/81/55
f 41/82/56 43/83/56 44/84/56 45/85/56 46/86/56 47/87/56 48/88/56 42/89/56
f 57/70/57 59/67/57 60/66/57 58/71/57
f 61/72/58 63/65/58 64/64/58 62/73/58
